# xmcd
#
# Track frame offsets:
# 150
# 18378
# 29035
# 54641
# 72728
# 85090
# 94821
# 112914
# 128417
# 142460
# 159001
# 173158
# 189305
# 202656
# 218315
# 243476
# 253544
# 263012
# 273338
# 289497
# 306755
# 323472
#
# Disc length: 4544 seconds
#
#
# Revision: 0
# Processed by: cddbd v1.5.2PL0 Copyright (c) Steve Scherf et al.
# Submitted via: FreeRIP 2.945 
#
DISCID=3211be16
DTITLE=spin List Special Edition
DYEAR=1900
DGENRE=
TTITLE0=Wont Do
TTITLE1=Intro(The Outsider)
TTITLE2=Bread and Butter(Sadat X Grad Puba)
TTITLE3=Life of the Party
TTITLE4=Jungle Love(MED G Simpson)
TTITLE5=Broken Levee Breaks
TTITLE6=Little Brother
TTITLE7=Music For Life(Hi Tek)
TTITLE8=This Time
TTITLE9=These Days
TTITLE10=Raw Shit(T Kweli)
TTITLE11=Love Movin(Black Thought)
TTITLE12=Artifact
TTITLE13=Baby(Madlib)
TTITLE14=Product Placement Two
TTITLE15=Over The Breaks
TTITLE16=Sum Spooky Shit
TTITLE17=Body Movin
TTITLE18=Dynomite
TTITLE19=Static(sadat x)
TTITLE20=Selfish inst
TTITLE21=Build Me Up (ODB)
EXTD=
EXTT0=
EXTT1=
EXTT2=
EXTT3=
EXTT4=
EXTT5=
EXTT6=
EXTT7=
EXTT8=
EXTT9=
EXTT10=
EXTT11=
EXTT12=
EXTT13=
EXTT14=
EXTT15=
EXTT16=
EXTT17=
EXTT18=
EXTT19=
EXTT20=
EXTT21=
PLAYORDER=
